Coordinates
version=1
nRows=16
nColumns=18
inDegrees=yes

Units are S.I. units (second, meters, Newtons, ...)
If the header above contains a line with 'inDegrees', this indicates whether rotational values are in degrees (yes) or radians (no).

endheader
time	ground_thorax_rot_x	ground_thorax_rot_y	ground_thorax_rot_z	ground_thorax_tx	ground_thorax_ty	ground_thorax_tz	clav_prot	clav_elev	scapula_abduction	scapula_elevation	scapula_upward_rot	scapula_winging	plane_elv	shoulder_elv	axial_rot	elbow_flexion	pro_sup
      2.56000000	     -2.82299518	    -14.97282334	    -25.90859277	      0.00129741	     -0.01608249	      0.04199619	    -23.06777530	    -14.12947366	    -19.34027881	     -9.40449848	      5.22224118	     34.38083138	    -11.60159199	     33.87867027	     -3.79098440	      5.91813700	     63.92270238
      2.58000000	     -2.50532447	    -14.66529853	    -25.50216471	     -0.00026980	     -0.01605895	      0.04216677	    -23.06660271	    -14.31698243	    -19.29628880	     -9.52821589	      5.16338896	     34.46898480	     -9.92707830	     34.37592455	     -5.26120442	      5.74272489	     63.92270238
      2.60000000	     -2.23649574	    -14.31835165	    -25.16608413	     -0.00174734	     -0.01608146	      0.04224994	    -23.03840791	    -14.53716713	    -19.17904378	     -9.68506366	      5.14388008	     34.55608120	     -8.40220210	     34.86995946	     -6.87669999	      5.58722658	     63.92270238
      2.62000000	     -1.93107245	    -13.95551118	    -24.77583202	     -0.00309073	     -0.01607817	      0.04238527	    -23.05908164	    -14.67523696	    -19.15458794	     -9.78974189	      5.14698832	     34.61931098	     -6.79662895	     35.30687248	     -7.63795421	      5.27355029	     63.92270238
      2.64000000	     -1.65955430	    -13.57284982	    -24.46201266	     -0.00434171	     -0.01619806	      0.04245389	    -23.06024735	    -14.79030226	    -19.11470786	     -9.87373737	      5.14074012	     34.66954071	     -5.21964152	     35.81885921	     -8.88201848	      4.99525950	     63.92270238
      2.66000000	     -1.41541562	    -13.11289737	    -24.07312766	     -0.00550226	     -0.01587790	      0.04227392	    -23.02742455	    -15.07302912	    -18.89258681	    -10.11383678	      5.26274296	     34.75772115	     -4.37800831	     36.12453527	     -9.27148432	      4.84252978	     63.92270238
      2.68000000	     -1.19020489	    -12.74588657	    -23.89984346	     -0.00669993	     -0.01640067	      0.04241160	    -23.01479009	    -14.98627060	    -18.91997219	    -10.04244101	      5.23915807	     34.72121451	     -2.45836700	     36.77179857	    -11.58536406	      4.55881716	     63.92270238
      2.70000000	     -1.05964739	    -12.35776416	    -23.54425859	     -0.00769451	     -0.01621249	      0.04235316	    -22.96364833	    -15.20163848	    -18.71821739	    -10.22034635	      5.31917833	     34.78461379	     -1.46717635	     37.05008207	    -11.89845770	      4.25750439	     63.92270238
      2.72000000	     -0.90165782	    -11.96086864	    -23.36224429	     -0.00876458	     -0.01654944	      0.04229097	    -22.93152251	    -15.16290653	    -18.64960916	    -10.20782011	      5.38916807	     34.74502379	      0.05283221	     37.53774789	    -13.49292488	      3.98824328	     63.92270238
      2.74000000	     -0.78086759	    -11.54055524	    -22.99405802	     -0.00968422	     -0.01621521	      0.04205415	    -22.87549998	    -15.35095275	    -18.44763909	    -10.36665068	      5.47559744	     34.79512592	      0.76061069	     37.79128708	    -13.68187361	      3.80284728	     63.92270238
      2.76000000	     -0.61665840	    -11.16932328	    -22.83569273	     -0.01071641	     -0.01654992	      0.04199910	    -22.85248847	    -15.24422615	    -18.42444922	    -10.30155868	      5.53567360	     34.72999559	      2.33263788	     38.28912748	    -14.81317737	      3.38649215	     63.92270238
      2.78000000	     -0.57620068	    -10.76447581	    -22.48507337	     -0.01161375	     -0.01619356	      0.04169265	    -22.78397499	    -15.42257847	    -18.21187017	    -10.45018042	      5.61376399	     34.77446959	      2.87626693	     38.45966887	    -15.00016216	      3.28943526	     63.92270238
      2.80000000	     -0.50074645	    -10.45202290	    -22.41393193	     -0.01262448	     -0.01660192	      0.04158312	    -22.73353469	    -15.31736325	    -18.10171609	    -10.40728021	      5.76152259	     34.68524174	      4.28170940	     38.87326161	    -16.58444418	      2.98716452	     63.92270238
      2.82000000	     -0.45099351	    -10.12923659	    -22.18822952	     -0.01355648	     -0.01654375	      0.04135018	    -22.66556361	    -15.34639822	    -17.95593320	    -10.44145822	      5.82582367	     34.66653945	      5.16860889	     39.15618317	    -16.97728483	      2.76381874	     63.92270238
      2.84000000	     -0.44258575	     -9.76437106	    -21.86573057	     -0.01449639	     -0.01614742	      0.04097683	    -22.59948775	    -15.48861312	    -17.77295522	    -10.55731247	      5.88099541	     34.70076288	      5.54726578	     39.28074418	    -17.04894683	      2.74763415	     63.92270238
      2.86000000	     -0.37332364	     -9.55176342	    -21.78753248	     -0.01545674	     -0.01643091	      0.04091166	    -22.56157878	    -15.37819430	    -17.69434659	    -10.50577194	      6.00725626	     34.61669947	      6.74774937	     39.61662875	    -17.97090918	      2.50208389	     63.92270238
